<?xml version="1.0" encoding="UTF-8"?>
<svg width="94px" height="84px" viewBox="0 0 94 84" version="1.1" xmlns="http://www.w3.org/2000/svg" xmlns:xlink="http://www.w3.org/1999/xlink">
    <!-- Generator: Sketch 46.1 (44463) - http://www.bohemiancoding.com/sketch -->
    <title>Logo_artup-01@1x</title>
    <desc>Created with Sketch.</desc>
    <defs></defs>
    <g id="Sign-up" stroke="none" stroke-width="1" fill="none" fill-rule="evenodd">
        <g id="1.-Intro-Tutorial-Copy-2" transform="translate(-140.000000, -249.000000)">
            <g id="Logo_artup-01" transform="translate(140.000000, 249.000000)">
                <g id="Calque_1">
                    <path d="M39.9631506,46.9143547 C44.718779,46.3223647 49.5344598,46.3392253 54.2868894,46.972688 L47.1080065,34.564096 L39.9631506,46.9143547 Z" id="Shape"></path>
                    <path d="M42.0666632,5.700309 C42.0346832,5.719839 42.0051382,5.743524 41.9721832,5.762809 C42.0891282,5.692009 42.2107082,5.630974 42.3310682,5.566274 C42.2421982,5.613394 42.1540632,5.652944 42.0666632,5.700309 Z" id="Shape" fill="#9F66A1" fill-rule="nonzero"></path>
                    <path d="M81.3668928,78.823598 C81.3288078,78.834338 81.2931628,78.843128 81.2550778,78.852893 C81.2921878,78.843133 81.3288078,78.834833 81.3668928,78.823598 Z" id="Shape" fill="#6BB8E3" fill-rule="nonzero"></path>
                    <path d="M52.1741462,5.70040667 C52.0872312,5.64987167 51.9944562,5.61251667 51.9065662,5.56490667 C52.0276612,5.63106667 52.1516812,5.69210167 52.2698462,5.76461167 C52.2356662,5.74362167 52.2073462,5.71993667 52.1741462,5.70040667 Z" id="Shape" fill="#CB5179" fill-rule="nonzero"></path>
                    <g id="Group" fill-rule="nonzero">
                        <path d="M72.6371298,77.9891607 L55.1144307,47.701402 C49.8139625,46.9950227 44.4436162,46.97588 39.1394908,47.6366893 L21.5756891,77.9891653 C21.3413999,78.3984087 21.0797104,78.7839547 20.8002124,79.1530973 C36.3453946,65.585128 60.0632408,66.18122 74.8731372,80.9623407 L74.9927931,80.8420293 C74.0775652,80.0499653 73.2783407,79.0938493 72.6371298,77.9891607 Z" id="Shape" fill="#9771AC"></path>
                        <path d="M47.1084648,33.8636387 L37.3588128,17.011232 C35.2552472,13.3754227 35.4265096,9.05420133 37.420923,5.67952467 C37.4017395,5.71188333 37.3761678,5.74196 37.3588128,5.77704867 L2.78473363,65.5304347 C1.75898318,66.849314 1.0200403,68.396972 0.667923781,70.087724 C0.667011841,70.0941033 0.665641592,70.1013973 0.663354726,70.1105113 C0.596221891,70.4477527 0.542786866,70.7895487 0.504424577,71.137724 C0.495291144,71.2316033 0.491180398,71.3254827 0.483870846,71.4211867 C0.461493234,71.6763973 0.448249055,71.9361627 0.44368,72.196838 C0.44368,72.247882 0.437287065,72.2998313 0.437287065,72.3526953 C0.437287065,72.48759 0.452813433,72.61884 0.457382488,72.7528247 C0.461493234,72.9123313 0.468798109,73.0700133 0.482042289,73.2249607 C0.50259602,73.5075133 0.538217811,73.780952 0.581602786,74.0553007 C0.58845403,74.1090747 0.598499403,74.1637633 0.607179204,74.218452 C1.34703403,78.5715747 4.61883731,82.0642853 8.87940368,83.178088 C8.92233502,83.1899367 8.96800219,83.2017853 9.01276209,83.212724 C9.30505065,83.2856407 9.60099164,83.3503533 9.90013144,83.3986627 C10.0841797,83.429654 10.2673207,83.4597307 10.4531975,83.4806933 C10.5856393,83.4971013 10.7167155,83.5080353 10.8473288,83.519884 C11.1387054,83.5426713 11.4305356,83.5599893 11.726023,83.562724 C11.7484006,83.562724 11.7689543,83.5663687 11.7913319,83.5663687 C11.7963546,83.5663687 11.8004654,83.5654587 11.8064047,83.5654587 C11.9073354,83.5654587 12.0041554,83.55361 12.1059981,83.5508753 C12.4106189,83.5417613 12.7143231,83.5308227 13.0157451,83.4989213 C13.2386139,83.476134 13.4578303,83.4351187 13.6770468,83.3995727 C13.845115,83.370406 14.0150072,83.3476187 14.1812422,83.3120727 C14.4447602,83.256474 14.7037092,83.1881167 14.9621998,83.1142853 C15.0645008,83.0842087 15.169084,83.0577767 15.2700147,83.0258753 C15.5787463,82.9283513 15.8810802,82.818064 16.1797617,82.695928 C16.1989452,82.687724 16.2213228,82.67861 16.2437004,82.669496 C17.9919507,81.93304 19.5109393,80.771838 20.678265,79.3226187 C21.1578006,78.7265267 21.5692868,78.077566 21.9209497,77.3921493 L39.1394862,47.63668 L47.1084648,33.8636387 Z" id="Shape" fill="#E8507B"></path>
                        <path d="M91.7327106,66.05088 L56.8572048,5.77705333 C56.8371094,5.74196 56.816102,5.71188333 56.7950946,5.67952933 C56.6663053,5.46123667 56.5302064,5.25889 56.3941121,5.055638 C56.3192114,4.94945267 56.2497964,4.84235733 56.1739838,4.73981667 C56.0378849,4.55251067 55.8917406,4.377058 55.7446844,4.202058 C55.6496929,4.089036 55.5592659,3.97282667 55.4597007,3.862082 C55.3290828,3.71807333 55.1902481,3.58499867 55.0550658,3.44964667 C54.9235359,3.32022133 54.7974871,3.18714667 54.6595643,3.06273333 C54.5408203,2.96019267 54.4211644,2.86357867 54.3024251,2.76559733 C54.1297924,2.623866 53.9608122,2.48031 53.7817867,2.34997467 C53.6730927,2.27067867 53.5598298,2.197762 53.4493073,2.12165333 C53.2492743,1.98766867 53.0492367,1.85322667 52.8382418,1.73018067 C52.7149334,1.65452933 52.5861441,1.591184 52.4591786,1.52236933 C52.264622,1.415274 52.065501,1.312276 51.86638,1.21931133 C51.7047094,1.14366 51.5384697,1.07758 51.3758824,1.00967533 C51.2096427,0.941318 51.0415791,0.873413333 50.8744228,0.813712667 C50.6789542,0.744898 50.4834857,0.683372667 50.2861932,0.625039333 C50.139137,0.583566667 49.9929927,0.541184 49.8459318,0.503360667 C49.6349369,0.450496667 49.423942,0.405836667 49.213859,0.366641333 C49.0668028,0.337474667 48.9224824,0.31241 48.7726857,0.29008 C48.5699122,0.259546 48.3634817,0.235848667 48.1561392,0.217163333 C47.99264,0.20167 47.8318813,0.188454 47.6683821,0.18116 C47.4802231,0.171588667 47.2961701,0.167034 47.1084648,0.167034 C46.9212177,0.167034 46.7339706,0.171593333 46.5485475,0.18116 C46.3873304,0.188449333 46.2233776,0.20167 46.060332,0.217163333 C45.8534479,0.235848667 45.6479293,0.259546 45.441957,0.29008 C45.296271,0.31241 45.1505804,0.337474667 45.0048944,0.366641333 C44.7920709,0.405832 44.5792475,0.450496667 44.3737335,0.503360667 C44.2225666,0.541184 44.075052,0.583571333 43.9293614,0.627316667 C43.7338928,0.683372667 43.537054,0.744893333 43.3447843,0.813708 C43.17261,0.873408667 43.0063702,0.941313333 42.838302,1.00967067 C42.6752611,1.07757533 42.5113036,1.14365533 42.3523734,1.217482 C42.1509702,1.31227133 41.9509326,1.41526933 41.7545521,1.523732 C41.628045,1.59117933 41.5019961,1.65452467 41.3795997,1.728356 C41.1667762,1.85322667 40.9671969,1.987664 40.766252,2.126208 C40.6543593,2.20003467 40.5442951,2.270674 40.4392536,2.34860267 C40.2538351,2.48258733 40.0830264,2.624776 39.910852,2.76878467 C39.7916544,2.86630867 39.6733688,2.96019267 39.5582772,3.06181867 C39.4198961,3.18896667 39.2915651,3.32295133 39.1577484,3.45511133 C39.023478,3.59046333 38.8837267,3.71988867 38.7567659,3.86207733 C38.6576637,3.97281733 38.5640378,4.09130867 38.4713286,4.204788 C38.324726,4.379788 38.17904,4.55251067 38.0443113,4.737992 C37.9662165,4.84235267 37.8977088,4.95036267 37.8223544,5.05928267 C37.6858019,5.25889 37.5483327,5.46397133 37.4209136,5.67952933 C35.4265002,9.054206 35.2552378,13.3754273 37.3588035,17.0112367 L47.1084554,33.8636433 L55.1144214,47.701402 L71.91188,76.7359087 C73.2290071,80.0271827 76.0459345,82.551924 79.5259969,83.470674 C79.5670997,83.4852573 79.6136835,83.496196 79.6593553,83.50713 C79.9507319,83.5809567 80.245761,83.6447593 80.5444425,83.6948887 C80.7280371,83.7249653 80.9107151,83.7568667 81.0979622,83.7778293 C81.2285801,83.7942373 81.3591933,83.8051713 81.4916398,83.81611 C81.7811879,83.8398073 82.0734764,83.8580353 82.3685055,83.85895 C82.3913414,83.85895 82.4123488,83.8635093 82.4342681,83.8635093 C82.4388371,83.8635093 82.4434015,83.8625993 82.4488825,83.8625993 C82.5493549,83.8625993 82.6470915,83.8498407 82.747564,83.848016 C83.054467,83.838902 83.3577175,83.8279633 83.6573109,83.796062 C83.8792679,83.7714547 84.0966557,83.7322593 84.3177007,83.6958033 C84.4866809,83.6666367 84.6547445,83.6438493 84.8209842,83.6083033 C85.0849558,83.5517947 85.3434511,83.4825227 85.6010299,83.4068713 C85.7051594,83.3767947 85.8092843,83.3503627 85.9088448,83.3175467 C86.2184883,83.219108 86.5199102,83.1079107 86.8185917,82.9848647 C86.8386872,82.9757507 86.8615231,82.9675467 86.8834424,82.9584327 C88.6289522,82.2146827 90.1452003,81.0416367 91.311614,79.576924 C92.85161,77.64372 93.7777999,75.1991893 93.7777999,72.5359087 C93.7778139,70.1232747 93.0196922,67.8874653 91.7327106,66.05088 Z" id="Shape" fill="#1EB8E4"></path>
                    </g>
                    <path d="M39.1394908,47.6366847 C44.4436162,46.97679 49.8139625,46.995018 55.1144307,47.7013973 L47.1084648,33.8636387 L39.1394908,47.6366847 Z" id="Shape"></path>
                    <path d="M41.4850791,1.67314233 C41.4494341,1.69511733 41.4167191,1.72099233 41.3796091,1.74296733 C41.5104691,1.66386733 41.6452341,1.59599233 41.7804891,1.52372733 C41.6813691,1.57646733 41.5832241,1.61992233 41.4850791,1.67314233 Z" id="Shape" fill="#B066A3" fill-rule="nonzero"></path>
                    <path d="M85.3149483,83.2227527 C85.2719783,83.2344727 85.2319383,83.2442377 85.1909233,83.2559577 C85.2319433,83.2442377 85.2719783,83.2344727 85.3149483,83.2227527 Z" id="Shape" fill="#1EB8E4" fill-rule="nonzero"></path>
                    <path d="M52.7580039,1.67324 C52.6613239,1.61709 52.5578089,1.575095 52.4591739,1.52236 C52.5949139,1.59609 52.7326139,1.66396 52.8644489,1.745015 C52.8263589,1.721095 52.7951089,1.695215 52.7580039,1.67324 Z" id="Shape" fill="#E8507B" fill-rule="nonzero"></path>
                </g>
            </g>
        </g>
    </g>
</svg>